<svg width="400" height="383" viewBox="0 0 400 383" fill="none" xmlns="http://www.w3.org/2000/svg">
<path d="M138.288 246.49C135.37 254.528 147.221 323.96 87.8927 328.377C57.6446 332.705 24.3894 328.377 25.0085 356.821C202.234 364.506 196.839 303.643 190.913 295.516" fill="#AFD66A"/>
<path d="M138.288 246.49C135.37 254.528 147.221 323.96 87.8927 328.377C57.6446 332.705 24.3894 328.377 25.0085 356.821C202.234 364.506 196.839 303.643 190.913 295.516" stroke="black" stroke-width="12" stroke-linecap="round" stroke-linejoin="round"/>
<path opacity="0.1" d="M190.187 297.49C152.039 298.47 122.505 341.696 31.9868 341.25C27.4477 344.994 24.8309 350.519 25.0085 358.808C198.275 366.473 195.99 307.205 190.188 297.49H190.187Z" fill="black"/>
<path d="M260.779 246.49C263.784 254.528 251.942 323.96 311.154 328.377C341.467 332.705 374.696 328.377 373.989 356.821C196.972 364.506 202.363 303.643 207.93 295.516" fill="#AFD66A"/>
<path d="M260.779 246.49C263.784 254.528 251.942 323.96 311.154 328.377C341.467 332.705 374.696 328.377 373.989 356.821C196.972 364.506 202.363 303.643 207.93 295.516" stroke="black" stroke-width="12" stroke-linecap="round" stroke-linejoin="round"/>
<path opacity="0.1" d="M208.822 297.49C247.182 298.47 276.881 341.696 367.921 341.25C372.517 344.994 375.168 350.519 374.992 358.808C200.69 366.473 202.988 307.205 208.822 297.49Z" fill="black"/>
<path d="M309 246.521C309 305.958 257.796 355.49 193.991 355.49C130.275 355.49 79 305.958 79 246.521C79 185.225 130.275 136.49 193.991 136.49C257.796 136.49 309 185.225 309 246.521Z" fill="#A7D077" stroke="black" stroke-width="13" stroke-linecap="round" stroke-linejoin="round"/>
<path fill-rule="evenodd" clip-rule="evenodd" d="M124.735 168.527C129.781 147.697 118.893 102.553 118.893 102.553L141.2 95.9064C141.2 95.9064 148.281 130.276 161.293 147.602" fill="#A7D077"/>
<path d="M124.735 168.527C129.781 147.697 118.893 102.553 118.893 102.553L141.2 95.9064C141.2 95.9064 148.281 130.276 161.293 147.602" stroke="black" stroke-width="10" stroke-linecap="round" stroke-linejoin="round"/>
<path fill-rule="evenodd" clip-rule="evenodd" d="M264.77 168.148C258.928 147.318 268.665 101.852 268.665 101.852L246.89 95.9064C246.89 95.9064 239.631 132.264 227.15 149.969" fill="#A7D077"/>
<path d="M264.77 168.148C258.928 147.318 268.665 101.852 268.665 101.852L246.89 95.9064C246.89 95.9064 239.631 132.264 227.15 149.969" stroke="black" stroke-width="10" stroke-linecap="round" stroke-linejoin="round"/>
<path opacity="0.1" d="M300.998 216.49C301.176 218.261 301.176 219.943 301.176 221.449C301.176 280.154 249.859 327.614 186.578 327.614C137.3 327.614 95.2191 298.571 79 258.018C81.8361 314.155 131.982 359.49 193.402 359.49C256.684 359.49 308 311.764 308 253.059C308 240.309 305.518 227.912 300.998 216.49Z" fill="black"/>
<path d="M156.487 323.856C155.514 324.299 159.851 325.45 152.327 337.311C143.387 351.385 151.353 360.237 164.011 359.44C181.449 358.024 185.433 339.524 183.308 332.088" fill="#A7D077"/>
<path d="M156.487 323.856C155.514 324.299 159.851 325.45 152.327 337.311C143.387 351.385 151.353 360.237 164.011 359.44C181.449 358.024 185.433 339.524 183.308 332.088" stroke="black" stroke-width="12" stroke-linecap="round" stroke-linejoin="round"/>
<path d="M106.501 297.992C107.74 299.851 105.97 304.985 100.968 313.749C92.7627 327.646 99.9415 336.586 112.608 335.789C130.135 334.285 133.41 321.273 129.869 316.139" fill="#A7D077"/>
<path d="M106.501 297.992C107.74 299.851 105.97 304.985 100.968 313.749C92.7627 327.646 99.9415 336.586 112.608 335.789C130.135 334.285 133.41 321.273 129.869 316.139" stroke="black" stroke-width="12" stroke-linecap="round" stroke-linejoin="round"/>
<path d="M237.064 321.985C238.038 322.516 233.789 323.578 241.225 335.439C250.254 349.602 242.198 358.366 229.54 357.657C211.925 356.153 208.031 337.741 210.244 330.305" fill="#A7D077"/>
<path d="M237.064 321.985C238.038 322.516 233.789 323.578 241.225 335.439C250.254 349.602 242.198 358.366 229.54 357.657C211.925 356.153 208.031 337.741 210.244 330.305" stroke="black" stroke-width="12" stroke-linecap="round" stroke-linejoin="round"/>
<path d="M287.519 294.983C286.369 296.842 286.369 302.064 291.414 310.827C299.646 324.725 292.476 333.577 279.73 332.868C262.203 331.364 258.928 316.404 262.469 311.359" fill="#A7D077"/>
<path d="M287.519 294.983C286.369 296.842 286.369 302.064 291.414 310.827C299.646 324.725 292.476 333.577 279.73 332.868C262.203 331.364 258.928 316.404 262.469 311.359" stroke="black" stroke-width="12" stroke-linecap="round" stroke-linejoin="round"/>
<g opacity="0.4015">
<path d="M120.607 238.327C118.788 243.315 115.792 247.611 112.184 250.405C108.577 253.2 104.607 254.3 101.022 253.499C97.4364 252.698 94.4839 250.051 92.7204 246.056C90.9568 242.061 90.5039 236.994 91.447 231.811C91.9943 228.802 92.9951 225.849 94.383 223.146C95.7709 220.443 97.5144 218.053 99.4979 216.133C101.481 214.214 103.66 212.808 105.888 212.011C108.117 211.213 110.346 211.041 112.427 211.506C114.507 211.971 116.393 213.062 117.958 214.708C119.523 216.353 120.733 218.516 121.506 221.051C122.279 223.587 122.599 226.439 122.444 229.417C122.289 232.395 121.663 235.432 120.607 238.327Z" fill="#476132"/>
<path d="M203.169 269.16C202.672 275.795 199.57 282.003 194.485 286.535C189.401 291.067 182.712 293.587 175.765 293.587C168.819 293.587 162.13 291.067 157.046 286.535C151.961 282.003 148.859 275.795 148.362 269.16C148.092 265.556 148.601 261.938 149.856 258.531C151.111 255.123 153.085 252 155.656 249.355C158.227 246.711 161.34 244.602 164.799 243.16C168.259 241.718 171.992 240.973 175.765 240.973C179.539 240.973 183.272 241.718 186.731 243.16C190.191 244.602 193.304 246.711 195.875 249.355C198.446 252 200.42 255.123 201.675 258.531C202.93 261.938 203.439 265.556 203.169 269.16Z" fill="#476132"/>
<path d="M290.298 223.673C291.645 227.475 291.99 231.379 291.256 234.545C290.523 237.71 288.771 239.885 286.377 240.602C283.983 241.318 281.139 240.519 278.455 238.375C275.772 236.232 273.465 232.916 272.029 229.141C271.301 227.226 270.82 225.252 270.613 223.332C270.406 221.412 270.479 219.587 270.826 217.961C271.172 216.335 271.787 214.943 272.633 213.864C273.479 212.786 274.541 212.043 275.755 211.68C276.968 211.316 278.311 211.34 279.703 211.748C281.096 212.157 282.51 212.942 283.864 214.059C285.218 215.175 286.485 216.601 287.589 218.252C288.694 219.902 289.615 221.746 290.298 223.673Z" fill="#476132"/>
<path d="M249.544 277.361C249.406 281.269 247.921 284.966 245.399 287.676C242.878 290.387 239.516 291.901 236.018 291.901C232.52 291.901 229.159 290.387 226.637 287.676C224.115 284.966 222.63 281.269 222.492 277.361C222.42 275.325 222.717 273.293 223.364 271.388C224.011 269.483 224.996 267.743 226.259 266.274C227.522 264.805 229.038 263.636 230.715 262.837C232.392 262.039 234.195 261.627 236.018 261.627C237.841 261.627 239.645 262.039 241.321 262.837C242.998 263.636 244.514 264.805 245.777 266.274C247.04 267.743 248.025 269.483 248.672 271.388C249.319 273.293 249.616 275.325 249.544 277.361Z" fill="#476132"/>
<path d="M245.328 215.6C244.892 221.014 242.445 226.065 238.474 229.747C234.503 233.43 229.299 235.474 223.897 235.474C218.496 235.474 213.292 233.43 209.321 229.747C205.35 226.065 202.903 221.014 202.467 215.6C202.227 212.623 202.603 209.628 203.571 206.805C204.539 203.981 206.078 201.39 208.092 199.195C210.105 196.999 212.549 195.247 215.269 194.049C217.99 192.85 220.928 192.232 223.897 192.232C226.867 192.232 229.805 192.85 232.526 194.049C235.246 195.247 237.69 196.999 239.703 199.195C241.717 201.39 243.256 203.981 244.224 206.805C245.192 209.628 245.568 212.623 245.328 215.6Z" fill="#476132"/>
<path d="M132.201 262.167C134.013 265.288 134.963 268.604 134.859 271.442C134.754 274.281 133.604 276.431 131.639 277.457C129.675 278.483 127.043 278.309 124.277 276.969C121.512 275.629 118.819 273.224 116.743 270.241C115.621 268.629 114.715 266.899 114.08 265.156C113.445 263.414 113.094 261.696 113.05 260.111C113.006 258.525 113.269 257.106 113.824 255.939C114.378 254.773 115.212 253.885 116.273 253.331C117.334 252.777 118.6 252.568 119.993 252.717C121.385 252.867 122.874 253.372 124.367 254.2C125.861 255.029 127.327 256.163 128.674 257.534C130.022 258.904 131.222 260.481 132.201 262.167Z" fill="#476132"/>
</g>
<path d="M209 72.3535C209 99.5586 231.442 121.49 259.18 121.49C286.917 121.49 309 99.5586 309 72.3535C309 45.4125 286.917 23.49 259.18 23.49C231.442 23.49 209 45.4125 209 72.3535Z" fill="#A7D077" stroke="black" stroke-width="11" stroke-linecap="round" stroke-linejoin="round"/>
<path d="M283.283 68.8548C283.283 86.0075 269.346 100.041 252.194 100.041C235.041 100.041 221.105 86.0075 221.105 68.8548C221.105 51.7022 235.041 37.6683 252.194 37.6683C269.346 37.6683 283.283 51.7022 283.283 68.8548Z" fill="white" stroke="black" stroke-width="4.99799" stroke-linecap="round" stroke-linejoin="round"/>
<path d="M240.694 70.3586C240.694 75.329 244.69 79.2273 249.563 79.2273C254.435 79.2273 258.431 75.329 258.431 70.3586C258.431 65.4857 254.435 61.49 249.563 61.49C244.69 61.49 240.694 65.4857 240.694 70.3586Z" fill="black"/>
<path opacity="0.1" d="M303.951 54.49C304.04 55.2829 304.04 56.0759 304.04 56.7807C304.04 83.9173 281.619 105.944 253.996 105.944C232.471 105.944 214.085 92.4636 207 73.697C208.256 99.6882 230.139 120.49 256.955 120.49C284.578 120.49 307 98.5429 307 71.4063C307 65.5032 305.924 59.7763 303.951 54.49Z" fill="black"/>
<path d="M180 72.3535C180 99.5586 157.779 121.49 130.313 121.49C103.221 121.49 81 99.5586 81 72.3535C81 45.4125 103.221 23.49 130.313 23.49C157.779 23.49 180 45.4125 180 72.3535Z" fill="#A7D077" stroke="black" stroke-width="11" stroke-linecap="round" stroke-linejoin="round"/>
<path opacity="0.1" d="M176.981 54.49C177.069 55.2829 177.069 56.0759 177.069 56.7807C177.069 83.9173 154.868 105.944 127.516 105.944C106.221 105.944 88.0156 92.4636 81 73.697C82.2433 99.6882 103.912 120.49 130.447 120.49C157.799 120.49 180 98.5429 180 71.4063C180 65.5032 178.934 59.7763 176.981 54.49Z" fill="black"/>
<path d="M169 69.49C169 87.6351 154.683 102.49 136.983 102.49C119.369 102.49 105 87.6351 105 69.49C105 51.3449 119.369 36.49 136.983 36.49C154.683 36.49 169 51.3449 169 69.49Z" fill="white" stroke="black" stroke-width="5.0006" stroke-linecap="round" stroke-linejoin="round"/>
<path d="M151.839 72.6574C151.839 77.1719 148.21 80.7125 143.784 80.7125C139.27 80.7125 135.641 77.1719 135.641 72.6574C135.641 68.2316 139.27 64.6024 143.784 64.6024C148.21 64.6024 151.839 68.2316 151.839 72.6574Z" fill="black"/>
<path d="M137.748 84.5032C130.562 84.513 123.18 84.4741 116.191 86.4833C111.662 87.5219 107.233 88.7254 103 90.4434C113.139 104.702 134.205 111.011 150.25 102.926C156.747 99.6546 162.456 94.6462 166 88.3178C162.948 87.4636 159.503 86.4639 156.156 85.9106C150.152 84.4644 143.95 84.4547 137.748 84.5032Z" fill="#A7D077"/>
<path d="M106 91.49C114.472 87.9738 124.239 85.954 134.605 85.5668C145.967 85.0959 156.731 86.8122 166 90.0877" fill="#A7D077"/>
<path d="M106 91.49C114.472 87.9738 124.239 85.954 134.605 85.5668C145.967 85.0959 156.731 86.8122 166 90.0877" stroke="black" stroke-width="5.00017" stroke-linecap="round" stroke-linejoin="round"/>
<path d="M133.756 30.5214C121.863 29.9996 110.379 36.0164 103.202 45.3692C99.1012 50.5879 96.2304 56.7787 95 63.297C97.6658 63.7881 100.947 65.1798 103.818 66.1519C121.863 71.9437 141.446 73.1204 160.106 69.2013C163.9 67.8608 169.949 67.9119 172 64.7603C171.282 55.3973 166.668 46.5664 159.491 40.5598C152.417 34.3076 143.189 30.501 133.756 30.5214Z" fill="#A7D077"/>
<path d="M98 62.49C108.528 67.1841 120.588 69.8723 133.262 70.3893C147.265 71.0097 160.552 68.735 172 64.3614" fill="#A7D077"/>
<path d="M98 62.49C108.528 67.1841 120.588 69.8723 133.262 70.3893C147.265 71.0097 160.552 68.735 172 64.3614" stroke="black" stroke-width="5.00248" stroke-linecap="round" stroke-linejoin="round"/>
</svg>
