<svg width="2177" height="2177" viewBox="0 0 2177 2177" fill="none" xmlns="http://www.w3.org/2000/svg">
<path d="M230.275 858.539C276.554 685.823 373.868 531.089 509.496 414.566C645.124 298.043 812.754 225.152 990.471 205.424C1168.19 185.696 1347.72 220.048 1505.6 303.989C1663.48 387.93 1792.37 517.555 1875.4 675.916L1088.5 1088.5L230.275 858.539Z" fill="#54C76D" fill-opacity="0.42"/>
<circle cx="1090.14" cy="1089.14" r="646" transform="rotate(45 1090.14 1089.14)" fill="#AEB9BE" stroke="black" stroke-width="22"/>
<circle cx="1090.14" cy="1088.43" r="317.5" transform="rotate(45 1090.14 1088.43)" fill="#848B8E" stroke="black" stroke-width="22"/>
<path d="M1094.03 446.731V770.586" stroke="black" stroke-width="20"/>
<path d="M1732.19 1084.9H1408.34" stroke="black" stroke-width="20"/>
<path d="M1543.39 635.883L1307.27 871.903" stroke="black" stroke-width="20"/>
<path d="M634.131 632.978L870.151 869.1" stroke="black" stroke-width="20"/>
<path d="M1318.61 1317.46L1554.63 1553.58" stroke="black" stroke-width="20"/>
<path d="M446.317 1094.44H770.172" stroke="black" stroke-width="20"/>
<path d="M1084.48 1732.61V1408.75" stroke="black" stroke-width="20"/>
<path d="M635.469 1543.81L871.489 1307.69" stroke="black" stroke-width="20"/>
<circle cx="1090.14" cy="1089.14" r="237" transform="rotate(45 1090.14 1089.14)" fill="#3AAD46" stroke="black" stroke-width="22"/>
<path d="M1253.48 1159.14C1156.63 1255.99 1011.63 1248.92 914.776 1152.07C817.926 1055.22 843.358 1037.52 914.776 913.776C1011.63 816.926 1168.65 816.926 1265.5 913.776C1348.59 1041.41 1350.33 1062.29 1253.48 1159.14Z" fill="#54C76D"/>
<path d="M1064.68 882.663C1113.9 880.966 1137.04 916.84 1142.46 934.989C1148.47 949.484 1130.09 949.249 1127.97 949.484L1023.67 963.273C1014.9 966.384 1003.99 955.613 999.628 949.838C991.143 941.353 1003.16 884.784 1064.68 882.663Z" fill="#77E17B"/>
<circle cx="1090.14" cy="1089.14" r="237" transform="rotate(45 1090.14 1089.14)" stroke="black" stroke-width="22"/>
<circle cx="916.897" cy="640.832" r="64.5" transform="rotate(45 916.897 640.832)" fill="#3AAD46" stroke="black" stroke-width="22"/>
<path d="M952.021 655.913C931.093 676.841 899.804 675.358 878.933 654.487C858.062 633.617 863.556 629.789 879.004 603.065C899.931 582.137 933.816 582.091 954.687 602.962C972.578 630.479 972.949 634.985 952.021 655.913Z" fill="#54C76D"/>
<path d="M911.905 596.448C922.574 596.084 927.594 603.862 928.77 607.797C930.074 610.939 926.089 610.887 925.629 610.938L903.021 613.919C901.12 614.593 898.754 612.257 897.808 611.005C895.968 609.165 898.57 596.903 911.905 596.448Z" fill="#77E17B"/>
<circle cx="665.167" cy="1277.23" r="64.5" transform="rotate(45 665.167 1277.23)" fill="#3AAD46" stroke="black" stroke-width="22"/>
<path d="M700.291 1292.31C679.363 1313.24 648.074 1311.75 627.203 1290.88C606.332 1270.01 611.826 1266.19 627.274 1239.46C648.202 1218.53 682.086 1218.49 702.957 1239.36C720.848 1266.88 721.219 1271.38 700.291 1292.31Z" fill="#54C76D"/>
<path d="M660.175 1232.84C670.844 1232.48 675.864 1240.26 677.04 1244.19C678.344 1247.34 674.359 1247.28 673.899 1247.33L651.291 1250.32C649.39 1250.99 647.024 1248.65 646.078 1247.4C644.238 1245.56 646.84 1233.3 660.175 1232.84Z" fill="#77E17B"/>
<circle cx="1547.64" cy="899.634" r="64.5" transform="rotate(45 1547.64 899.634)" fill="#3AAD46" stroke="black" stroke-width="22"/>
<path d="M1582.76 914.715C1561.83 935.643 1530.54 934.159 1509.67 913.289C1488.8 892.418 1494.29 888.59 1509.74 861.867C1530.67 840.939 1564.56 840.892 1585.43 861.763C1603.32 889.281 1603.69 893.787 1582.76 914.715Z" fill="#54C76D"/>
<path d="M1542.64 855.249C1553.31 854.885 1558.33 862.663 1559.51 866.598C1560.81 869.741 1556.83 869.688 1556.37 869.739L1533.76 872.72C1531.86 873.394 1529.49 871.058 1528.55 869.806C1526.71 867.966 1529.31 855.704 1542.64 855.249Z" fill="#77E17B"/>
<circle cx="1288.84" cy="640.832" r="64.5" transform="rotate(45 1288.84 640.832)" fill="#3AAD46" stroke="black" stroke-width="22"/>
<path d="M1323.96 655.913C1303.03 676.841 1271.74 675.358 1250.87 654.487C1230 633.617 1235.49 629.789 1250.94 603.065C1271.87 582.137 1305.75 582.091 1326.63 602.962C1344.52 630.479 1344.89 634.985 1323.96 655.913Z" fill="#54C76D"/>
<path d="M1283.84 596.448C1294.51 596.084 1299.53 603.862 1300.71 607.797C1302.01 610.939 1298.03 610.887 1297.57 610.938L1274.96 613.919C1273.06 614.593 1270.69 612.257 1269.75 611.005C1267.91 609.165 1270.51 596.903 1283.84 596.448Z" fill="#77E17B"/>
<circle cx="1563.9" cy="1263.79" r="64.5" transform="rotate(45 1563.9 1263.79)" fill="#3AAD46" stroke="black" stroke-width="22"/>
<path d="M1599.02 1278.87C1578.1 1299.8 1546.81 1298.32 1525.94 1277.45C1505.07 1256.58 1510.56 1252.75 1526.01 1226.03C1546.93 1205.1 1580.82 1205.05 1601.69 1225.92C1619.58 1253.44 1619.95 1257.95 1599.02 1278.87Z" fill="#54C76D"/>
<path d="M1558.91 1219.41C1569.58 1219.04 1574.6 1226.82 1575.77 1230.76C1577.08 1233.9 1573.09 1233.85 1572.63 1233.9L1550.02 1236.88C1548.12 1237.55 1545.76 1235.22 1544.81 1233.97C1542.97 1232.13 1545.57 1219.86 1558.91 1219.41Z" fill="#77E17B"/>
<circle cx="1296.61" cy="1531.08" r="64.5" transform="rotate(45 1296.61 1531.08)" fill="#3AAD46" stroke="black" stroke-width="22"/>
<path d="M1331.74 1546.16C1310.81 1567.09 1279.52 1565.61 1258.65 1544.73C1237.78 1523.86 1243.27 1520.04 1258.72 1493.31C1279.65 1472.38 1313.53 1472.34 1334.4 1493.21C1352.29 1520.73 1352.66 1525.23 1331.74 1546.16Z" fill="#54C76D"/>
<path d="M1291.62 1486.7C1302.29 1486.33 1307.31 1494.11 1308.49 1498.04C1309.79 1501.19 1305.81 1501.13 1305.35 1501.19L1282.74 1504.17C1280.84 1504.84 1278.47 1502.5 1277.52 1501.25C1275.68 1499.41 1278.29 1487.15 1291.62 1486.7Z" fill="#77E17B"/>
<circle cx="927.504" cy="1539.57" r="64.5" transform="rotate(45 927.504 1539.57)" fill="#3AAD46" stroke="black" stroke-width="22"/>
<path d="M962.628 1554.65C941.7 1575.57 910.411 1574.09 889.54 1553.22C868.669 1532.35 874.163 1528.52 889.61 1501.8C910.538 1480.87 944.423 1480.82 965.294 1501.69C983.185 1529.21 983.555 1533.72 962.628 1554.65Z" fill="#54C76D"/>
<path d="M922.512 1495.18C933.181 1494.82 938.201 1502.59 939.377 1506.53C940.681 1509.67 936.696 1509.62 936.236 1509.67L913.628 1512.65C911.727 1513.33 909.361 1510.99 908.415 1509.74C906.575 1507.9 909.177 1495.64 922.512 1495.18Z" fill="#77E17B"/>
<circle cx="642.54" cy="877.006" r="64.5" transform="rotate(45 642.54 877.006)" fill="#3AAD46" stroke="black" stroke-width="22"/>
<path d="M677.663 892.087C656.735 913.015 625.447 911.532 604.576 890.661C583.705 869.79 589.198 865.963 604.646 839.239C625.574 818.311 659.459 818.265 680.33 839.136C698.221 866.653 698.591 871.159 677.663 892.087Z" fill="#54C76D"/>
<path d="M637.548 832.622C648.216 832.257 653.236 840.036 654.413 843.97C655.717 847.113 651.732 847.061 651.272 847.112L628.663 850.093C626.763 850.767 624.396 848.431 623.451 847.179C621.611 845.339 624.212 833.077 637.548 832.622Z" fill="#77E17B"/>
</svg>
